<svg width="48px" height="48px" viewBox="0 0 48 48" version="1.1" xmlns="http://www.w3.org/2000/svg" xmlns:xlink="http://www.w3.org/1999/xlink">
    <!-- Generator: Sketch 48.2 (47327) - http://www.bohemiancoding.com/sketch -->
    <desc>Created with Sketch.</desc>
    <defs></defs>
    <g id="Symbols" stroke="none" stroke-width="1" fill="none" fill-rule="evenodd">
        <g id="导航栏" transform="translate(-45.000000, -11.000000)">
            <g id="Page-1">
                <g transform="translate(45.000000, 11.000000)">
                    <circle id="Oval" fill="#FFFFFF" cx="24" cy="24" r="22"></circle>
                    <path d="M38.4297674,35.9233488 C38.4297674,35.9233488 37.2762791,30.6973023 35.3946047,27.5773023 C34.3724651,25.8738605 32.7929302,24.487814 30.6868837,24.5272558 C29.2003721,24.5581395 27.9151628,25.3707907 26.312186,27.6156279 C25.3443721,28.9629767 23.8578605,32.3925581 23.8578605,32.3925581 C23.8578605,32.3925581 23.2770233,31.0533953 22.6031628,29.7220465 C22.2005581,28.9168372 21.7674419,28.1190698 21.4031628,27.6156279 C19.8005581,25.3707907 18.5071628,24.5581395 17.0284651,24.5272558 C14.9224186,24.487814 13.3428837,25.8738605 12.3207442,27.5694884 C10.4394419,30.6973023 9.2855814,35.9233488 9.2855814,35.9233488 L7.56651163,35.9233488 L16.7266977,5.86827907 L23.8035349,29.3425116 L23.8578605,29.3812093 L23.9043721,29.3425116 L30.9812093,5.86827907 L40.1488372,35.9233488 L38.4297674,35.9233488 Z M23.9962578,0 C10.7398063,0 0,10.7416775 0,23.9988773 C0,37.2538319 10.7398063,48 23.9962578,48 C37.2500897,48 48,37.2538319 48,23.9988773 C48,10.8187672 37.4259741,0 23.9962578,0 L23.9962578,0 Z" id="Fill-1" fill="#FC8026"></path>
                </g>
            </g>
        </g>
    </g>
</svg>